<?xml version="1.0" standalone="no"?>
<!DOCTYPE svg PUBLIC "-//W3C//DTD SVG 20010904//EN" "http://www.w3.org/TR/2001/REC-SVG-20010904/DTD/svg10.dtd">
<svg version="1.0" xmlns="http://www.w3.org/2000/svg"  width="512.000000pt" height="512.000000pt" viewBox="0 0 512.000000 512.000000" preserveAspectRatio="xMidYMid meet">
	<g transform="translate(0.000000,512.000000) scale(0.100000,-0.100000)" fill="#000000" stroke="none">
		<path d="M2895 4903 c-134 -17 -296 -65 -418 -123 -94 -44 -1274 -797 -1358 -866 -222 -182 -371 -430 -435 -724 -24 -113 -29 -335 -10 -450 20 -123 58 -254 101 -347 l34 -73 -34 -58 c-88 -148 -146 -331 -167 -528 -65 -622 351 -1233 982 -1444 162 -54 308 -73 500 -67 217 8 364 42 543 127 93 44 1274 797 1359 867 392 320 550 852 403 1357 -14 49 -41 122 -60 163 l-34 73 34 58 c129 216 192 504 167 765 -32 333 -170 619 -418 864 -272 268 -639 416 -1022 412 -76 -1 -150 -4 -167 -6z m403 -544 c412 -95 712 -504 662 -904 -9 -70 -43 -211 -55 -223 -2 -2 -46 26 -99 62 -110 75 -228 135 -347 175 l-84 28 -1 59 c-1 32 -9 77 -18 99 -50 118 -198 184 -316 141 -51 -18 -1138 -712 -1183 -755 -106 -101 -77 -281 58 -366 59 -37 158 -46 219 -21 20 8 137 79 259 157 122 79 258 159 302 179 198 92 402 101 622 28 270 -89 491 -322 565 -597 27 -100 29 -285 5 -386 -36 -147 -135 -305 -252 -403 -70 -59 -1207 -781 -1282 -815 -214 -96 -480 -94 -697 7 -338 156 -548 509 -506 851 9 70 43 211 55 223 2 2 46 -26 99 -62 110 -75 228 -135 347 -175 l84 -28 1 -59 c1 -32 9 -77 18 -99 50 -118 198 -184 316 -141 51 18 1138 712 1183 755 106 101 77 281 -58 366 -59 37 -158 46 -219 21 -20 -8 -137 -79 -259 -157 -307 -197 -401 -237 -587 -254 -277 -25 -600 127 -765 360 -111 156 -157 297 -158 480 -1 148 17 226 80 355 40 80 61 109 138 185 84 85 126 113 675 462 322 204 608 382 635 396 166 83 363 102 563 56z" />
	</g>
</svg>
